<?xml version="1.0" encoding="UTF-8" standalone="no" ?>
<!DOCTYPE svg PUBLIC "-//W3C//DTD SVG 1.1//EN" "http://www.w3.org/Graphics/SVG/1.1/DTD/svg11.dtd">
<svg xmlns="http://www.w3.org/2000/svg" xmlns:xlink="http://www.w3.org/1999/xlink" version="1.1" width="737" height="42" viewBox="-142 132 737 42" xml:space="preserve">
<desc>Created with Fabric.js 4.6.0</desc>
<defs>
</defs>
<g transform="matrix(1 0 0 1 226.33 153)" id="Kr64BmqCKsSjCWZOj3EEq"  >
<path style="stroke: rgb(255,255,255); stroke-width: 0; stroke-dasharray: none; stroke-linecap: butt; stroke-dashoffset: 0; stroke-linejoin: miter; stroke-miterlimit: 4; fill: rgb(0,0,0); fill-rule: nonzero; opacity: 1;" vector-effect="non-scaling-stroke"  transform=" translate(-362.5, -15)" d="M 0 0 L 725 0 L 725 30 L 0 30 z" stroke-linecap="round" />
</g>
<g transform="matrix(1.25 0 0 1.32 13.1 153)" id="tsi4"  >
<path style="stroke: rgb(255,255,255); stroke-width: 1; stroke-dasharray: none; stroke-linecap: butt; stroke-dashoffset: 0; stroke-linejoin: miter; stroke-miterlimit: 4; fill: rgb(230,230,230); fill-rule: nonzero; opacity: 1;" vector-effect="non-scaling-stroke"  transform=" translate(-10.85, -9)" d="M 0 0 L 21.7087 0 L 21.7087 18 L 0 18 z" stroke-linecap="round" />
</g>
<g transform="matrix(1.25 0 0 1.32 52.87 153)" id="tsi5"  >
<path style="stroke: rgb(255,255,255); stroke-width: 1; stroke-dasharray: none; stroke-linecap: butt; stroke-dashoffset: 0; stroke-linejoin: miter; stroke-miterlimit: 4; fill: rgb(160,155,237); fill-rule: nonzero; opacity: 1;" vector-effect="non-scaling-stroke"  transform=" translate(-10.85, -9)" d="M 0 0 L 21.7087 0 L 21.7087 18 L 0 18 z" stroke-linecap="round" />
</g>
<g transform="matrix(1.25 0 0 1.32 93.02 153)" id="tsi6"  >
<path style="stroke: rgb(255,255,255); stroke-width: 1; stroke-dasharray: none; stroke-linecap: butt; stroke-dashoffset: 0; stroke-linejoin: miter; stroke-miterlimit: 4; fill: rgb(160,155,237); fill-rule: nonzero; opacity: 1;" vector-effect="non-scaling-stroke"  transform=" translate(-10.85, -9)" d="M 0 0 L 21.7087 0 L 21.7087 18 L 0 18 z" stroke-linecap="round" />
</g>
<g transform="matrix(1.25 0 0 1.32 132.3 153)" id="tsi7"  >
<path style="stroke: rgb(255,255,255); stroke-width: 1; stroke-dasharray: none; stroke-linecap: butt; stroke-dashoffset: 0; stroke-linejoin: miter; stroke-miterlimit: 4; fill: rgb(160,155,237); fill-rule: nonzero; opacity: 1;" vector-effect="non-scaling-stroke"  transform=" translate(-10.85, -9)" d="M 0 0 L 21.7087 0 L 21.7087 18 L 0 18 z" stroke-linecap="round" />
</g>
<g transform="matrix(1.25 0 0 1.32 171.82 153)" id="tsi8"  >
<path style="stroke: rgb(255,255,255); stroke-width: 1; stroke-dasharray: none; stroke-linecap: butt; stroke-dashoffset: 0; stroke-linejoin: miter; stroke-miterlimit: 4; fill: rgb(160,155,237); fill-rule: nonzero; opacity: 1;" vector-effect="non-scaling-stroke"  transform=" translate(-10.85, -9)" d="M 0 0 L 21.7087 0 L 21.7087 18 L 0 18 z" stroke-linecap="round" />
</g>
<g transform="matrix(1.25 0 0 1.32 212.22 153)" id="tsi9"  >
<path style="stroke: rgb(255,255,255); stroke-width: 1; stroke-dasharray: none; stroke-linecap: butt; stroke-dashoffset: 0; stroke-linejoin: miter; stroke-miterlimit: 4; fill: rgb(64,71,255); fill-rule: nonzero; opacity: 1;" vector-effect="non-scaling-stroke"  transform=" translate(-10.85, -9)" d="M 0 0 L 21.7087 0 L 21.7087 18 L 0 18 z" stroke-linecap="round" />
</g>
<g transform="matrix(1.25 0 0 1.32 249.61 153)" id="tsi10"  >
<path style="stroke: rgb(255,255,255); stroke-width: 1; stroke-dasharray: none; stroke-linecap: butt; stroke-dashoffset: 0; stroke-linejoin: miter; stroke-miterlimit: 4; fill: rgb(64,71,255); fill-rule: nonzero; opacity: 1;" vector-effect="non-scaling-stroke"  transform=" translate(-10.85, -9)" d="M 0 0 L 21.7087 0 L 21.7087 18 L 0 18 z" stroke-linecap="round" />
</g>
<g transform="matrix(1.25 0 0 1.32 289.38 153)" id="tsi11"  >
<path style="stroke: rgb(255,255,255); stroke-width: 1; stroke-dasharray: none; stroke-linecap: butt; stroke-dashoffset: 0; stroke-linejoin: miter; stroke-miterlimit: 4; fill: rgb(64,71,255); fill-rule: nonzero; opacity: 1;" vector-effect="non-scaling-stroke"  transform=" translate(-10.85, -9)" d="M 0 0 L 21.7087 0 L 21.7087 18 L 0 18 z" stroke-linecap="round" />
</g>
<g transform="matrix(1.25 0 0 1.32 329.53 153)" id="tsi12"  >
<path style="stroke: rgb(255,255,255); stroke-width: 1; stroke-dasharray: none; stroke-linecap: butt; stroke-dashoffset: 0; stroke-linejoin: miter; stroke-miterlimit: 4; fill: rgb(64,71,255); fill-rule: nonzero; opacity: 1;" vector-effect="non-scaling-stroke"  transform=" translate(-10.85, -9)" d="M 0 0 L 21.7087 0 L 21.7087 18 L 0 18 z" stroke-linecap="round" />
</g>
<g transform="matrix(1.25 0 0 1.32 368.81 153)" id="tsi13"  >
<path style="stroke: rgb(255,255,255); stroke-width: 1; stroke-dasharray: none; stroke-linecap: butt; stroke-dashoffset: 0; stroke-linejoin: miter; stroke-miterlimit: 4; fill: rgb(0,19,255); fill-rule: nonzero; opacity: 1;" vector-effect="non-scaling-stroke"  transform=" translate(-10.85, -9)" d="M 0 0 L 21.7087 0 L 21.7087 18 L 0 18 z" stroke-linecap="round" />
</g>
<g transform="matrix(1.25 0 0 1.32 408.33 153)" id="tsi14"  >
<path style="stroke: rgb(255,255,255); stroke-width: 1; stroke-dasharray: none; stroke-linecap: butt; stroke-dashoffset: 0; stroke-linejoin: miter; stroke-miterlimit: 4; fill: rgb(0,19,255); fill-rule: nonzero; opacity: 1;" vector-effect="non-scaling-stroke"  transform=" translate(-10.85, -9)" d="M 0 0 L 21.7087 0 L 21.7087 18 L 0 18 z" stroke-linecap="round" />
</g>
<g transform="matrix(1.25 0 0 1.32 448.73 153)" id="tsi15"  >
<path style="stroke: rgb(255,255,255); stroke-width: 1; stroke-dasharray: none; stroke-linecap: butt; stroke-dashoffset: 0; stroke-linejoin: miter; stroke-miterlimit: 4; fill: rgb(51,0,255); fill-rule: nonzero; opacity: 1;" vector-effect="non-scaling-stroke"  transform=" translate(-10.85, -9)" d="M 0 0 L 21.7087 0 L 21.7087 18 L 0 18 z" stroke-linecap="round" />
</g>
<g transform="matrix(1.25 0 0 1.32 485.87 153)" id="tsi16"  >
<path style="stroke: rgb(255,255,255); stroke-width: 1; stroke-dasharray: none; stroke-linecap: butt; stroke-dashoffset: 0; stroke-linejoin: miter; stroke-miterlimit: 4; fill: rgb(151,5,209); fill-rule: nonzero; opacity: 1;" vector-effect="non-scaling-stroke"  transform=" translate(-10.85, -9)" d="M 0 0 L 21.7087 0 L 21.7087 18 L 0 18 z" stroke-linecap="round" />
</g>
<g transform="matrix(1.25 0 0 1.32 525.39 153)" id="tsi17"  >
<path style="stroke: rgb(255,255,255); stroke-width: 1; stroke-dasharray: none; stroke-linecap: butt; stroke-dashoffset: 0; stroke-linejoin: miter; stroke-miterlimit: 4; fill: rgb(151,5,209); fill-rule: nonzero; opacity: 1;" vector-effect="non-scaling-stroke"  transform=" translate(-10.85, -9)" d="M 0 0 L 21.7087 0 L 21.7087 18 L 0 18 z" stroke-linecap="round" />
</g>
<g transform="matrix(1.25 0 0 1.32 565.79 153)" id="tsi18"  >
<path style="stroke: rgb(255,255,255); stroke-width: 1; stroke-dasharray: none; stroke-linecap: butt; stroke-dashoffset: 0; stroke-linejoin: miter; stroke-miterlimit: 4; fill: rgb(151,5,209); fill-rule: nonzero; opacity: 1;" vector-effect="non-scaling-stroke"  transform=" translate(-10.85, -9)" d="M 0 0 L 21.7087 0 L 21.7087 18 L 0 18 z" stroke-linecap="round" />
</g>
<g transform="matrix(1.25 0 0 1.32 -105.73 153)" id="tsi1">
<path style="stroke: rgb(255,255,255); stroke-width: 1; stroke-dasharray: none; stroke-linecap: butt; stroke-dashoffset: 0; stroke-linejoin: miter; stroke-miterlimit: 4; fill: rgb(253,253,253); fill-rule: nonzero; opacity: 1;" vector-effect="non-scaling-stroke"  transform=" translate(-10.85, -9)" d="M 0 0 L 21.7087 0 L 21.7087 18 L 0 18 z" stroke-linecap="round" />
</g>
<g transform="matrix(1.25 0 0 1.32 -65.96 153)" id="tsi2">
<path style="stroke: rgb(255,255,255); stroke-width: 1; stroke-dasharray: none; stroke-linecap: butt; stroke-dashoffset: 0; stroke-linejoin: miter; stroke-miterlimit: 4; fill: rgb(230,230,230); fill-rule: nonzero; opacity: 1;" vector-effect="non-scaling-stroke"  transform=" translate(-10.85, -9)" d="M 0 0 L 21.7087 0 L 21.7087 18 L 0 18 z" stroke-linecap="round" />
</g>
<g transform="matrix(1.25 0 0 1.32 -25.81 153)" id="tsi3"  >
<path style="stroke: rgb(255,255,255); stroke-width: 1; stroke-dasharray: none; stroke-linecap: butt; stroke-dashoffset: 0; stroke-linejoin: miter; stroke-miterlimit: 4; fill: rgb(230,230,230); fill-rule: nonzero; opacity: 1;" vector-effect="non-scaling-stroke"  transform=" translate(-10.85, -9)" d="M 0 0 L 21.7087 0 L 21.7087 18 L 0 18 z" stroke-linecap="round" />
</g>
</svg>